<svg width="416" height="414" viewBox="0 0 416 414" fill="none" xmlns="http://www.w3.org/2000/svg">
<path d="M395.85 275.63C381.807 314.121 356.269 347.364 322.697 370.853C289.125 394.341 249.142 406.939 208.17 406.939C167.197 406.939 127.214 394.341 93.6424 370.853C60.0704 347.364 34.5322 314.121 20.4895 275.63C26.114 281.127 33.2367 284.841 40.964 286.306C48.6913 287.77 56.679 286.92 63.925 283.862C71.171 280.804 77.3526 275.675 81.6942 269.117C86.0358 262.559 88.3441 254.865 88.3295 247V187C88.2457 181.701 89.2169 176.439 91.1867 171.519C93.1565 166.599 96.0855 162.12 99.803 158.344C103.521 154.567 107.952 151.567 112.84 149.52C117.728 147.472 122.975 146.418 128.275 146.418C133.574 146.418 138.821 147.472 143.709 149.52C148.597 151.567 153.028 154.567 156.746 158.344C160.464 162.12 163.393 166.599 165.362 171.519C167.332 176.439 168.303 181.701 168.219 187C167.949 192.415 168.781 197.828 170.666 202.91C172.552 207.993 175.451 212.64 179.187 216.568C182.923 220.496 187.419 223.623 192.401 225.76C197.384 227.897 202.748 228.999 208.17 228.999C213.591 228.999 218.955 227.897 223.938 225.76C228.92 223.623 233.416 220.496 237.152 216.568C240.888 212.64 243.787 207.993 245.673 202.91C247.558 197.828 248.39 192.415 248.12 187C247.849 181.586 248.681 176.173 250.566 171.09C252.452 166.007 255.351 161.36 259.087 157.432C262.823 153.504 267.319 150.377 272.301 148.24C277.284 146.103 282.648 145.001 288.07 145.001C293.491 145.001 298.855 146.103 303.838 148.24C308.82 150.377 313.316 153.504 317.052 157.432C320.788 161.36 323.687 166.007 325.573 171.09C327.458 176.173 328.29 181.586 328.02 187V247C328.007 254.863 330.316 262.554 334.657 269.11C338.998 275.666 345.178 280.794 352.422 283.852C359.666 286.909 367.652 287.76 375.377 286.298C383.103 284.835 390.225 281.124 395.85 275.63Z" fill="url(#paint0_linear_64_883)"/>
<path d="M407.919 207C407.941 230.406 403.856 253.635 395.85 275.63C390.225 281.124 383.103 284.835 375.377 286.297C367.652 287.76 359.666 286.909 352.422 283.852C345.178 280.794 338.998 275.666 334.657 269.11C330.316 262.554 328.007 254.863 328.02 247V187C328.29 181.585 327.458 176.172 325.573 171.09C323.687 166.007 320.788 161.36 317.052 157.432C313.316 153.504 308.82 150.377 303.838 148.24C298.855 146.102 293.491 145.001 288.07 145.001C282.648 145.001 277.284 146.102 272.301 148.24C267.319 150.377 262.823 153.504 259.087 157.432C255.351 161.36 252.452 166.007 250.566 171.09C248.681 176.172 247.849 181.585 248.12 187C248.39 192.414 247.558 197.827 245.673 202.91C243.787 207.993 240.888 212.64 237.152 216.568C233.416 220.496 228.92 223.623 223.938 225.76C218.955 227.897 213.591 228.999 208.17 228.999C202.748 228.999 197.384 227.897 192.401 225.76C187.419 223.623 182.923 220.496 179.187 216.568C175.451 212.64 172.552 207.993 170.666 202.91C168.781 197.827 167.949 192.414 168.219 187C168.303 181.701 167.332 176.438 165.362 171.519C163.393 166.599 160.464 162.12 156.746 158.343C153.028 154.566 148.597 151.567 143.709 149.52C138.821 147.472 133.574 146.418 128.275 146.418C122.975 146.418 117.728 147.472 112.84 149.52C107.952 151.567 103.521 154.566 99.803 158.343C96.0855 162.12 93.1565 166.599 91.1867 171.519C89.2169 176.438 88.2457 181.701 88.3295 187V247C88.3441 254.865 86.0358 262.559 81.6942 269.117C77.3526 275.674 71.171 280.804 63.925 283.862C56.679 286.92 48.6913 287.77 40.964 286.306C33.2367 284.841 26.114 281.127 20.4895 275.63C10.4373 248.21 6.51766 218.92 9.00652 189.822C11.4954 160.724 20.3323 132.525 34.895 107.211C49.4578 81.8964 69.3924 60.0819 93.2955 43.3029C117.199 26.5239 144.489 15.1884 173.246 10.0944C202.002 5.00045 231.526 6.27178 259.738 13.8189C287.951 21.3661 314.166 35.0056 336.538 53.7773C358.91 72.5489 376.896 95.9964 389.228 122.469C401.561 148.941 407.941 177.796 407.919 207Z" fill="url(#paint1_linear_64_883)"/>
<path d="M367.969 287C363.07 287.001 358.212 286.099 353.639 284.34C340.268 306.796 322.646 326.429 301.759 342.14C278.14 359.942 250.842 372.242 221.859 378.14C195.493 383.473 168.326 383.473 141.959 378.14C112.98 372.242 85.6846 359.942 62.0694 342.14C60.8227 341.2 59.586 340.243 58.3594 339.27C67.3822 349.507 77.424 358.798 88.3294 367C111.945 384.802 139.24 397.102 168.219 403C194.586 408.333 221.753 408.333 248.119 403C281.563 396.133 312.695 380.825 338.552 358.531C364.41 336.237 384.134 307.699 395.849 275.63C388.404 282.925 378.393 287.007 367.969 287Z" fill="#E29837"/>
<path d="M328.529 46.4798C322.845 42.205 316.936 38.2361 310.829 34.5898C311.829 35.4198 312.719 36.2498 313.659 37.0998C323.589 46.1446 332.587 56.1613 340.519 66.9998C363.171 98.0654 376.406 134.992 378.645 173.374C380.885 211.755 372.034 249.971 353.149 283.46C360.376 286.459 368.325 287.27 376.009 285.79C383.692 284.311 390.772 280.608 396.369 275.14C411.04 234.786 412.367 190.788 400.154 149.623C387.941 108.459 362.834 72.3033 328.529 46.4798Z" fill="url(#paint2_linear_64_883)"/>
<path d="M51.1195 330.58C38.624 310.028 29.9762 287.371 25.5995 263.72C26.1195 270.08 26.9395 276.37 28.0695 282.55C24.1614 266.754 22.1903 250.542 22.1995 234.27C22.1995 233.22 22.1995 232.18 22.2495 231.13C22.2495 229.72 22.1995 228.3 22.1995 226.88C22.1291 191.218 31.6114 156.189 49.6609 125.432C67.7104 94.675 93.6683 69.3139 124.836 51.9844C156.005 34.655 191.245 25.9897 226.896 26.8893C262.546 27.7889 297.305 38.2206 327.559 57.1L327.429 57C326.499 56.15 325.549 55.32 324.599 54.49C345.679 67.0682 364.265 83.4169 379.429 102.72C362.461 74.7552 338.91 51.3655 310.829 34.59C311.829 35.42 312.719 36.25 313.659 37.1L313.789 37.22C293.647 24.6168 271.403 15.7357 248.119 11C221.753 5.66666 194.586 5.66666 168.219 11C123.084 20.2637 82.5307 44.828 53.4159 80.5406C24.301 116.253 8.41016 160.923 8.42947 207C8.42947 208.42 8.42947 209.84 8.42947 211.25C8.42947 212.3 8.42947 213.34 8.42947 214.39C8.42144 230.661 10.3892 246.873 14.2895 262.67C13.1695 256.49 12.3495 250.2 11.8195 243.84C17.6861 275.514 31.1744 305.284 51.1195 330.58Z" fill="url(#paint3_linear_64_883)"/>
<path d="M395.85 275.63C381.807 314.121 356.269 347.364 322.697 370.853C289.125 394.341 249.142 406.939 208.17 406.939C167.197 406.939 127.214 394.341 93.6424 370.853C60.0704 347.364 34.5322 314.121 20.4895 275.63C26.114 281.127 33.2367 284.841 40.964 286.306C48.6913 287.77 56.679 286.92 63.925 283.862C71.171 280.804 77.3526 275.675 81.6942 269.117C86.0358 262.559 88.3441 254.865 88.3295 247V187C88.2457 181.701 89.2169 176.439 91.1867 171.519C93.1565 166.599 96.0855 162.12 99.803 158.344C103.521 154.567 107.952 151.567 112.84 149.52C117.728 147.472 122.975 146.418 128.275 146.418C133.574 146.418 138.821 147.472 143.709 149.52C148.597 151.567 153.028 154.567 156.746 158.344C160.464 162.12 163.393 166.599 165.362 171.519C167.332 176.439 168.303 181.701 168.219 187C167.949 192.415 168.781 197.828 170.666 202.91C172.552 207.993 175.451 212.64 179.187 216.568C182.923 220.496 187.419 223.623 192.401 225.76C197.384 227.897 202.748 228.999 208.17 228.999C213.591 228.999 218.955 227.897 223.938 225.76C228.92 223.623 233.416 220.496 237.152 216.568C240.888 212.64 243.787 207.993 245.673 202.91C247.558 197.828 248.39 192.415 248.12 187C247.849 181.586 248.681 176.173 250.566 171.09C252.452 166.007 255.351 161.36 259.087 157.432C262.823 153.504 267.319 150.377 272.301 148.24C277.284 146.103 282.648 145.001 288.07 145.001C293.491 145.001 298.855 146.103 303.838 148.24C308.82 150.377 313.316 153.504 317.052 157.432C320.788 161.36 323.687 166.007 325.573 171.09C327.458 176.173 328.29 181.586 328.02 187V247C328.007 254.863 330.316 262.554 334.657 269.11C338.998 275.666 345.178 280.794 352.422 283.852C359.666 286.909 367.652 287.76 375.377 286.298C383.103 284.835 390.225 281.124 395.85 275.63V275.63Z" stroke="#160C21" stroke-width="14" stroke-linecap="round" strokeLinejoin="round"/>
<path d="M407.919 207C407.941 230.406 403.856 253.635 395.85 275.63C390.225 281.124 383.103 284.835 375.377 286.297C367.652 287.76 359.666 286.909 352.422 283.852C345.178 280.794 338.998 275.666 334.657 269.11C330.316 262.554 328.007 254.863 328.02 247V187C328.29 181.585 327.458 176.172 325.573 171.09C323.687 166.007 320.788 161.36 317.052 157.432C313.316 153.504 308.82 150.377 303.838 148.24C298.855 146.102 293.491 145.001 288.07 145.001C282.648 145.001 277.284 146.102 272.301 148.24C267.319 150.377 262.823 153.504 259.087 157.432C255.351 161.36 252.452 166.007 250.566 171.09C248.681 176.172 247.849 181.585 248.12 187C248.39 192.414 247.558 197.827 245.673 202.91C243.787 207.993 240.888 212.64 237.152 216.568C233.416 220.496 228.92 223.623 223.938 225.76C218.955 227.897 213.591 228.999 208.17 228.999C202.748 228.999 197.384 227.897 192.401 225.76C187.419 223.623 182.923 220.496 179.187 216.568C175.451 212.64 172.552 207.993 170.666 202.91C168.781 197.827 167.949 192.414 168.219 187C168.303 181.701 167.332 176.438 165.362 171.519C163.393 166.599 160.464 162.12 156.746 158.343C153.028 154.566 148.597 151.567 143.709 149.52C138.821 147.472 133.574 146.418 128.275 146.418C122.975 146.418 117.728 147.472 112.84 149.52C107.952 151.567 103.521 154.566 99.803 158.343C96.0855 162.12 93.1565 166.599 91.1867 171.519C89.2169 176.438 88.2457 181.701 88.3295 187V247C88.3441 254.865 86.0358 262.559 81.6942 269.117C77.3526 275.675 71.171 280.804 63.925 283.862C56.679 286.92 48.6913 287.77 40.964 286.306C33.2367 284.841 26.114 281.127 20.4895 275.63C10.4373 248.21 6.51766 218.92 9.00652 189.822C11.4954 160.724 20.3323 132.525 34.895 107.211C49.4578 81.8964 69.3924 60.0819 93.2955 43.3029C117.199 26.5239 144.489 15.1884 173.246 10.0944C202.002 5.00045 231.526 6.27178 259.738 13.8189C287.951 21.3661 314.166 35.0056 336.538 53.7773C358.91 72.5489 376.896 95.9964 389.228 122.469C401.561 148.941 407.941 177.796 407.919 207Z" stroke="#160C21" stroke-width="14" stroke-linecap="round" strokeLinejoin="round"/>
<path d="M129.24 319.46C140.269 319.46 149.21 310.506 149.21 299.46C149.21 288.414 140.269 279.46 129.24 279.46C118.21 279.46 109.27 288.414 109.27 299.46C109.27 310.506 118.21 319.46 129.24 319.46Z" fill="#160C21"/>
<path d="M287.25 319.62C298.279 319.62 307.22 310.666 307.22 299.62C307.22 288.574 298.279 279.62 287.25 279.62C276.22 279.62 267.28 288.574 267.28 299.62C267.28 310.666 276.22 319.62 287.25 319.62Z" fill="#160C21"/>
<defs>
<linearGradient id="paint0_linear_64_883" x1="208.169" y1="430.597" x2="208.169" y2="145.001" gradientUnits="userSpaceOnUse">
<stop stop-color="#FCB962"/>
<stop offset="1" stop-color="#FFC272"/>
</linearGradient>
<linearGradient id="paint1_linear_64_883" x1="208.1" y1="287.004" x2="208.1" y2="-45.2486" gradientUnits="userSpaceOnUse">
<stop stop-color="#945FFD"/>
<stop offset="1" stop-color="#C1A2FF"/>
</linearGradient>
<linearGradient id="paint2_linear_64_883" x1="359.632" y1="286.511" x2="359.632" y2="-12.4517" gradientUnits="userSpaceOnUse">
<stop stop-color="#6742B0"/>
<stop offset="1" stop-color="#D3C0F9"/>
</linearGradient>
<linearGradient id="paint3_linear_64_883" x1="184.988" y1="313.927" x2="193.929" y2="-53.4227" gradientUnits="userSpaceOnUse">
<stop stop-color="#6742B0"/>
<stop offset="1" stop-color="#AF86FF"/>
</linearGradient>
</defs>
</svg>
